<?xml version="1.0" encoding="iso-8859-1"?>
<!-- Generator: Adobe Illustrator 19.0.0, SVG Export Plug-In . SVG Version: 6.00 Build 0)  -->
<svg version="1.1" id="Layer_1" xmlns="http://www.w3.org/2000/svg" xmlns:xlink="http://www.w3.org/1999/xlink" x="0px" y="0px"
	 viewBox="0 0 512 512" style="enable-background:new 0 0 512 512;" xml:space="preserve">
<g transform="translate(1 1)">
	<polygon style="fill:#FFFFFF;" points="67.267,41.667 92.867,41.667 92.867,7.533 67.267,7.533 	"/>
	<path style="fill:#FFE100;" d="M92.867,340.333H7.533v-33.28c0-19.627,15.36-34.987,34.987-34.987h50.347V340.333z"/>
	<path style="fill:#FDCC00;" d="M7.533,340.333v51.2h307.2c0-17.92,0-34.987-0.853-51.2H7.533z"/>
	<path style="fill:#FFE100;" d="M101.4,468.333c0-18.773-11.093-34.133-25.6-34.133s-25.6,15.36-25.6,34.133
		c0,18.773,11.093,34.133,25.6,34.133S101.4,487.107,101.4,468.333"/>
	<path style="fill:#FFA800;" d="M84.333,434.2c-1.707,0-3.413,0-5.12,0.853c12.8,1.707,22.187,16.213,22.187,33.28
		c0,17.067-9.387,31.573-22.187,33.28c1.707,0.853,3.413,0.853,5.12,0.853c18.773,0,34.133-15.36,34.133-34.133
		C118.467,449.56,103.107,434.2,84.333,434.2"/>
	<path style="fill:#FFE100;" d="M289.133,468.333c0-18.773-11.093-34.133-25.6-34.133c-14.507,0-25.6,15.36-25.6,34.133
		c0,18.773,11.093,34.133,25.6,34.133C278.04,502.467,289.133,487.107,289.133,468.333"/>
	<path style="fill:#FFA800;" d="M272.067,434.2c-1.707,0-3.413,0-5.12,0.853c12.8,1.707,22.187,16.213,22.187,33.28
		c0,17.067-9.387,31.573-22.187,33.28c1.707,0,3.413,0.853,5.12,0.853c18.773,0,34.133-15.36,34.133-34.133
		C306.2,449.56,290.84,434.2,272.067,434.2"/>
	<path style="fill:#FFE100;" d="M33.133,400.067v50.347c0,14.507,2.56,26.453,17.067,26.453c0-18.773,15.36-34.133,34.133-34.133
		s34.133,15.36,34.133,34.133h119.467c0-18.773,15.36-34.133,34.133-34.133s34.133,15.36,34.133,34.133h16.213
		c14.507,0,26.453-11.947,26.453-26.453v-50.347H33.133z"/>
	<path style="fill:#FFFFFF;" d="M7.533,297.667V441.88c0,14.507,11.947,26.453,26.453,26.453h2.56
		c-2.56-4.267-3.413-11.093-3.413-17.92V272.067C18.627,272.067,7.533,283.16,7.533,297.667"/>
	<path style="fill:#FFE100;" d="M58.733,246.467c0-14.507-7.68-25.6-17.067-25.6S24.6,231.96,24.6,246.467
		c0,14.507,7.68,25.6,17.067,25.6S58.733,260.973,58.733,246.467"/>
	<path style="fill:#FFFFFF;" d="M24.6,246.467c0-12.8,5.973-23.04,13.653-24.747c-1.707-0.853-3.413-0.853-5.12-0.853
		c-14.507,0-25.6,11.093-25.6,25.6c0,14.507,11.093,25.6,25.6,25.6c1.707,0,3.413,0,5.12-0.853
		C30.573,269.507,24.6,259.267,24.6,246.467"/>
	<path style="fill:#FFE100;" d="M144.067,267.8v-32.427c0-12.8-10.24-23.893-23.893-23.893H92.867v128h51.2h51.2v-27.307
		c0-12.8-10.24-23.893-23.893-23.893h-6.827C153.453,289.133,144.067,279.747,144.067,267.8"/>
	<path style="fill:#FDCC00;" d="M94.573,272.067v-59.733h6.827L127,41.667h-23.893L73.24,235.373
		c1.707,3.413,2.56,6.827,2.56,11.093c0,6.827-2.56,13.653-7.68,17.92l-0.853,7.68H94.573z"/>
	<path style="fill:#FFFFFF;" d="M75.8,246.467c0-4.267-0.853-7.68-2.56-11.093l29.867-193.707H86.04L56.173,235.373
		c1.707,3.413,2.56,6.827,2.56,11.093c0,6.827-2.56,13.653-7.68,17.92l-0.853,7.68h17.067l0.853-7.68
		C73.24,260.12,75.8,253.293,75.8,246.467"/>
	<g>
		<path style="fill:#FFE100;" d="M260.973,225.987l-29.867,29.867c-6.827,6.827-17.067,6.827-23.893,0
			c-6.827-6.827-6.827-17.067,0-23.893l29.867-29.867c6.827-6.827,17.067-6.827,23.893,0S267.8,220.013,260.973,225.987"/>
		<polygon style="fill:#FFE100;" points="313.88,319.853 257.56,230.253 231.96,255 285.72,340.333 313.88,340.333 		"/>
	</g>
	<path style="fill:#FDCC00;" d="M220.867,7.533H75.8v34.133h162.133c12.8,0,34.133,24.747,51.2,81.067
		c17.067,57.173,25.6,133.12,25.6,268.8H331.8C331.8,172.227,289.987,7.533,220.867,7.533"/>
	<path style="fill:#FFA800;" d="M237.933,7.533h-17.067c69.12,0,110.933,164.693,110.933,384h17.067
		C348.867,172.227,307.053,7.533,237.933,7.533"/>
	<g>
		<path style="fill:#FFE100;" d="M383,374.467h-34.133c-5.12,0-8.533-3.413-8.533-8.533s3.413-8.533,8.533-8.533H383
			c5.12,0,8.533,3.413,8.533,8.533S388.12,374.467,383,374.467z"/>
		<path style="fill:#FFE100;" d="M383,408.6h-34.133c-5.12,0-8.533-3.413-8.533-8.533s3.413-8.533,8.533-8.533H383
			c5.12,0,8.533,3.413,8.533,8.533S388.12,408.6,383,408.6z"/>
		<path style="fill:#FFE100;" d="M383,442.733h-34.133c-5.12,0-8.533-3.413-8.533-8.533c0-5.12,3.413-8.533,8.533-8.533H383
			c5.12,0,8.533,3.413,8.533,8.533C391.533,439.32,388.12,442.733,383,442.733z"/>
	</g>
	<polygon style="fill:#FDCC00;" points="417.133,434.2 417.133,246.467 383,246.467 383,425.667 383,468.333 417.133,468.333 
		502.467,468.333 502.467,434.2 	"/>
	<polygon style="fill:#FFA800;" points="476.867,468.333 502.467,468.333 502.467,434.2 476.867,434.2 	"/>
	<path d="M84.333,511c-23.893,0-42.667-18.773-42.667-42.667c0-23.893,18.773-42.667,42.667-42.667S127,444.44,127,468.333
		C127,492.227,108.227,511,84.333,511z M84.333,442.733c-14.507,0-25.6,11.093-25.6,25.6c0,14.507,11.093,25.6,25.6,25.6
		s25.6-11.093,25.6-25.6C109.933,453.827,98.84,442.733,84.333,442.733z"/>
	<path d="M272.067,511c-23.893,0-42.667-18.773-42.667-42.667c0-23.893,18.773-42.667,42.667-42.667s42.667,18.773,42.667,42.667
		C314.733,492.227,295.96,511,272.067,511z M272.067,442.733c-14.507,0-25.6,11.093-25.6,25.6c0,14.507,11.093,25.6,25.6,25.6
		s25.6-11.093,25.6-25.6C297.667,453.827,286.573,442.733,272.067,442.733z"/>
	<path d="M383,365.933h-34.133c-5.12,0-8.533-3.413-8.533-8.533s3.413-8.533,8.533-8.533H383c5.12,0,8.533,3.413,8.533,8.533
		S388.12,365.933,383,365.933z"/>
	<path d="M383,400.067h-34.133c-5.12,0-8.533-3.413-8.533-8.533s3.413-8.533,8.533-8.533H383c5.12,0,8.533,3.413,8.533,8.533
		S388.12,400.067,383,400.067z"/>
	<path d="M383,434.2h-34.133c-5.12,0-8.533-3.413-8.533-8.533s3.413-8.533,8.533-8.533H383c5.12,0,8.533,3.413,8.533,8.533
		S388.12,434.2,383,434.2z"/>
	<path d="M502.467,476.867H383c-5.12,0-8.533-3.413-8.533-8.533V246.467c0-5.12,3.413-8.533,8.533-8.533h34.133
		c5.12,0,8.533,3.413,8.533,8.533v179.2h76.8c5.12,0,8.533,3.413,8.533,8.533v34.133C511,473.453,507.587,476.867,502.467,476.867z
		 M391.533,459.8h102.4v-17.067h-76.8c-5.12,0-8.533-3.413-8.533-8.533V255h-17.067V459.8z"/>
	<path d="M33.133,280.6C14.36,280.6-1,265.24-1,246.467s15.36-34.133,34.133-34.133s34.133,15.36,34.133,34.133
		S51.907,280.6,33.133,280.6z M33.133,229.4c-9.387,0-17.067,7.68-17.067,17.067s7.68,17.067,17.067,17.067
		s17.067-7.68,17.067-17.067S42.52,229.4,33.133,229.4z"/>
	<path d="M348.867,400.067h-34.133c-5.12,0-8.533-3.413-8.533-8.533c0-124.587-7.68-203.947-26.453-266.24
		C262.68,68.973,243.907,50.2,237.933,50.2H67.267c-5.12,0-8.533-3.413-8.533-8.533V7.533c0-5.12,3.413-8.533,8.533-8.533h170.667
		C325.827-1,357.4,210.627,357.4,391.533C357.4,396.653,353.987,400.067,348.867,400.067z M323.267,383h17.067
		c-0.853-216.747-42.667-366.933-102.4-366.933H75.8v17.067h162.133c20.48,0,41.813,32.427,58.027,87.04
		C314.733,182.467,323.267,261.827,323.267,383z"/>
	<path d="M195.267,348.867h-102.4c-5.12,0-8.533-3.413-8.533-8.533v-128c0-5.12,3.413-8.533,8.533-8.533h27.307
		c17.92,0,32.427,14.507,32.427,32.427v32.427c0,6.827,5.973,12.8,12.8,12.8h6.827c17.92,0,32.427,14.507,32.427,32.427v26.453
		C203.8,345.453,200.387,348.867,195.267,348.867z M101.4,331.8h85.333v-18.773c0-8.533-6.827-15.36-15.36-15.36h-6.827
		c-16.213,0-29.867-13.653-29.867-29.867v-32.427c0-8.533-6.827-15.36-15.36-15.36H101.4V331.8z"/>
	<path d="M92.867,348.867H7.533c-5.12,0-8.533-3.413-8.533-8.533v-33.28c0-23.893,19.627-43.52,43.52-43.52h50.347
		c5.12,0,8.533,3.413,8.533,8.533v68.267C101.4,345.453,97.987,348.867,92.867,348.867z M16.067,331.8h68.267v-51.2H42.52
		c-14.507,0-26.453,11.947-26.453,26.453V331.8z"/>
	<path d="M92.867,280.6H50.2c-2.56,0-5.12-0.853-6.827-2.56c-0.853-2.56-1.707-5.12-1.707-7.68l0.853-7.68
		c0-1.707,0.853-3.413,2.56-4.267c3.413-3.413,5.12-7.68,5.12-11.947c0-2.56-0.853-5.12-1.707-7.68
		c-0.853-1.707-0.853-3.413-0.853-5.12L63,133.827c0.853-4.267,5.12-7.68,9.387-6.827s7.68,5.12,6.827,9.387l-14.507,97.28
		c1.707,4.267,2.56,8.533,2.56,12.8c0,5.973-1.707,11.947-4.267,17.067h21.333v-51.2c0-4.267,3.413-8.533,7.68-8.533l18.773-153.6
		H93.72l-4.267,27.307c-0.853,4.267-5.12,7.68-10.24,6.827c-4.267-0.853-7.68-5.12-6.827-10.24l5.12-34.133
		c0.853-3.413,4.267-6.827,8.533-6.827h34.133c2.56,0,5.12,0.853,5.973,2.56c0.853,1.707,2.56,4.267,1.707,6.827l-20.48,170.667
		c-0.853,3.413-3.413,6.827-6.827,7.68v51.2C101.4,277.187,97.987,280.6,92.867,280.6z"/>
	<path d="M85.187,104.813c0-5.12-3.413-8.533-8.533-8.533s-8.533,3.413-8.533,8.533c0,5.12,3.413,8.533,8.533,8.533
		S85.187,109.933,85.187,104.813"/>
	<path d="M322.413,476.867H306.2c-5.12,0-8.533-3.413-8.533-8.533c0-14.507-11.093-25.6-25.6-25.6s-25.6,11.093-25.6,25.6
		c0,5.12-3.413,8.533-8.533,8.533H118.467c-5.12,0-8.533-3.413-8.533-8.533c0-14.507-11.093-25.6-25.6-25.6s-25.6,11.093-25.6,25.6
		c0,5.12-3.413,8.533-8.533,8.533H33.987C14.36,476.867-1,461.507-1,441.88v-50.347c0-5.12,3.413-8.533,8.533-8.533h341.333
		c5.12,0,8.533,3.413,8.533,8.533v50.347C357.4,461.507,342.04,476.867,322.413,476.867z M313.88,459.8h8.533
		c9.387,0,17.92-7.68,17.92-17.92v-41.813H16.067v41.813c0,10.24,7.68,17.92,17.92,17.92h8.533
		c4.267-19.627,21.333-34.133,41.813-34.133s37.547,14.507,41.813,34.133h104.107c4.267-19.627,21.333-34.133,41.813-34.133
		C292.547,425.667,309.613,440.173,313.88,459.8z"/>
	<path d="M314.733,400.067H7.533c-5.12,0-8.533-3.413-8.533-8.533v-51.2c0-5.12,3.413-8.533,8.533-8.533H313.88
		c4.267,0,8.533,3.413,8.533,8.533c0,16.213,0.853,33.28,0.853,51.2C323.267,396.653,319.853,400.067,314.733,400.067z M16.067,383
		H306.2c0-11.947,0-23.04,0-34.133H16.067V383z"/>
	<path d="M218.307,270.36c-6.827,0-12.8-2.56-17.92-7.68c-10.24-10.24-10.24-26.453,0-35.84l29.867-29.867
		c10.24-10.24,26.453-10.24,35.84,0c9.387,10.24,10.24,26.453,0,35.84l0,0l-29.867,29.867
		C231.96,267.8,225.133,270.36,218.307,270.36z M249.027,205.507c-2.56,0-4.267,0.853-5.973,2.56l-30.72,30.72
		c-3.413,3.413-3.413,8.533,0,11.947s8.533,3.413,11.947,0l29.867-29.867c3.413-3.413,3.413-8.533,0-11.947
		C253.293,206.36,250.733,205.507,249.027,205.507z M260.973,225.987L260.973,225.987L260.973,225.987z"/>
	<path d="M313.88,348.867h-28.16c-2.56,0-5.973-1.707-6.827-4.267l-53.76-85.333c-2.56-3.413-1.707-7.68,0.853-10.24l25.6-25.6
		c1.707-1.707,4.267-2.56,6.827-2.56c2.56,0,5.12,1.707,5.973,4.267l56.32,90.453c0.853,1.707,0.853,2.56,1.707,4.267l0.853,20.48
		c0,2.56-0.853,4.267-2.56,5.973C319,348.013,316.44,348.867,313.88,348.867z M290.84,331.8h14.507v-9.387l-49.493-79.36l-12.8,12.8
		L290.84,331.8z"/>
</g>
<g>
</g>
<g>
</g>
<g>
</g>
<g>
</g>
<g>
</g>
<g>
</g>
<g>
</g>
<g>
</g>
<g>
</g>
<g>
</g>
<g>
</g>
<g>
</g>
<g>
</g>
<g>
</g>
<g>
</g>
</svg>
